<?xml version="1.0" encoding="UTF-8" standalone="no"?>
<svg
   id="Layer_1"
   data-name="Layer 1"
   width="207.75999"
   height="30"
   viewBox="0 0 207.76 30"
   version="1.1"
   sodipodi:docname="gsas-logo.svg"
   inkscape:version="1.4.2 (ebf0e940, 2025-05-08)"
   xmlns:inkscape="http://www.inkscape.org/namespaces/inkscape"
   xmlns:sodipodi="http://sodipodi.sourceforge.net/DTD/sodipodi-0.dtd"
   xmlns="http://www.w3.org/2000/svg"
   xmlns:svg="http://www.w3.org/2000/svg"
   xmlns:rdf="http://www.w3.org/1999/02/22-rdf-syntax-ns#"
   xmlns:cc="http://creativecommons.org/ns#"
   xmlns:dc="http://purl.org/dc/elements/1.1/">
  <sodipodi:namedview
     id="namedview32"
     pagecolor="#ffffff"
     bordercolor="#000000"
     borderopacity="0.25"
     inkscape:showpageshadow="2"
     inkscape:pageopacity="0.0"
     inkscape:pagecheckerboard="0"
     inkscape:deskcolor="#d1d1d1"
     inkscape:zoom="2.4021773"
     inkscape:cx="99.909363"
     inkscape:cy="38.714878"
     inkscape:window-width="1512"
     inkscape:window-height="921"
     inkscape:window-x="0"
     inkscape:window-y="33"
     inkscape:window-maximized="1"
     inkscape:current-layer="Layer_1" />
  <defs
     id="defs1">
    <style
       id="style1">.cls-1{fill:#fff;}</style>
  </defs>
  <title
     id="title1">gsas_large_full</title>
  <g
     id="g33"
     style="fill:#570683;fill-opacity:1">
    <path
       class="cls-1"
       d="m 104.41,10 v 0 a 3.59,3.59 0 0 1 3.67,-3.62 3.84,3.84 0 0 1 2.75,1 l -1,1.17 A 2.57,2.57 0 0 0 108,7.79 2.1,2.1 0 0 0 106,10 v 0 a 2.1,2.1 0 0 0 2.12,2.22 2.46,2.46 0 0 0 1.45,-0.42 v -1 H 108 V 9.46 h 3 v 3 a 4.55,4.55 0 0 1 -3,1.11 3.5,3.5 0 0 1 -3.59,-3.57 z"
       id="path1"
       style="fill:#570683;fill-opacity:1" />
    <path
       class="cls-1"
       d="m 112.36,6.49 h 3.2 a 2.79,2.79 0 0 1 2,0.71 2.2,2.2 0 0 1 0.6,1.6 v 0 A 2.18,2.18 0 0 1 116.7,11 l 1.71,2.5 h -1.8 l -1.5,-2.24 h -1.21 v 2.24 h -1.54 v -7 z m 3.1,3.4 a 1,1 0 0 0 1.18,-1 v 0 a 1,1 0 0 0 -1.21,-1 h -1.53 v 2 z"
       id="path2"
       style="fill:#570683;fill-opacity:1" />
    <path
       class="cls-1"
       d="m 121.79,6.44 h 1.42 l 3,7.05 H 124.6 L 124,11.92 h -3 l -0.64,1.57 h -1.57 z m 1.62,4.12 -0.93,-2.27 -0.93,2.27 z"
       id="path3"
       style="fill:#570683;fill-opacity:1" />
    <path
       class="cls-1"
       d="m 127.09,6.49 h 2.73 a 3.49,3.49 0 0 1 3.72,3.51 v 0 a 3.51,3.51 0 0 1 -3.72,3.5 h -2.73 v -7 z m 2.73,5.61 a 2,2 0 0 0 2.11,-2.1 v 0 a 2,2 0 0 0 -2.11,-2.11 h -1.19 v 4.21 z"
       id="path4"
       style="fill:#570683;fill-opacity:1" />
    <path
       class="cls-1"
       d="m 134.6,10.49 v -4 h 1.54 v 4 a 1.48,1.48 0 0 0 1.51,1.73 1.45,1.45 0 0 0 1.51,-1.68 v -4 h 1.54 v 4 a 2.82,2.82 0 0 1 -3.07,3.16 2.78,2.78 0 0 1 -3.03,-3.21 z"
       id="path5"
       style="fill:#570683;fill-opacity:1" />
    <path
       class="cls-1"
       d="m 144.47,6.44 h 1.42 l 3,7.05 h -1.61 l -0.64,-1.57 h -3 L 143,13.49 h -1.57 z m 1.62,4.12 -0.93,-2.27 -0.93,2.27 z"
       id="path6"
       style="fill:#570683;fill-opacity:1" />
    <path
       class="cls-1"
       d="m 151.4,7.91 h -2.13 V 6.49 h 5.8 v 1.42 h -2.13 v 5.58 h -1.54 z"
       id="path7"
       style="fill:#570683;fill-opacity:1" />
    <path
       class="cls-1"
       d="m 156,6.49 h 5.28 v 1.37 h -3.75 v 1.42 h 3.3 v 1.37 h -3.3 v 1.47 h 3.8 v 1.37 H 156 Z"
       id="path8"
       style="fill:#570683;fill-opacity:1" />
    <path
       class="cls-1"
       d="m 164.87,12.47 0.91,-1.09 a 3.21,3.21 0 0 0 2.09,0.85 c 0.63,0 1,-0.25 1,-0.66 v 0 c 0,-0.39 -0.24,-0.59 -1.41,-0.89 -1.41,-0.36 -2.32,-0.75 -2.32,-2.14 v 0 a 2.19,2.19 0 0 1 2.45,-2.11 4.06,4.06 0 0 1 2.6,0.89 l -0.8,1.16 a 3.29,3.29 0 0 0 -1.82,-0.69 0.74,0.74 0 0 0 -0.9,0.61 v 0 c 0,0.46 0.3,0.61 1.51,0.92 1.42,0.37 2.22,0.88 2.22,2.1 v 0 c 0,1.39 -1.06,2.17 -2.57,2.17 a 4.46,4.46 0 0 1 -2.96,-1.12 z"
       id="path9"
       style="fill:#570683;fill-opacity:1" />
    <path
       class="cls-1"
       d="m 171.23,10 v 0 a 3.56,3.56 0 0 1 3.65,-3.62 3.61,3.61 0 0 1 2.76,1.08 l -1,1.13 a 2.59,2.59 0 0 0 -1.79,-0.79 2.07,2.07 0 0 0 -2,2.18 v 0 a 2.08,2.08 0 0 0 2,2.2 2.52,2.52 0 0 0 1.84,-0.82 l 1,1 a 3.58,3.58 0 0 1 -2.87,1.25 3.53,3.53 0 0 1 -3.59,-3.61 z"
       id="path10"
       style="fill:#570683;fill-opacity:1" />
    <path
       class="cls-1"
       d="m 178.73,6.49 h 1.54 v 2.77 h 2.84 V 6.49 h 1.54 v 7 h -1.54 v -2.81 h -2.84 v 2.81 h -1.54 z"
       id="path11"
       style="fill:#570683;fill-opacity:1" />
    <path
       class="cls-1"
       d="m 185.82,10 v 0 a 3.72,3.72 0 0 1 7.44,0 v 0 a 3.72,3.72 0 0 1 -7.44,0 z m 5.83,0 v 0 a 2.13,2.13 0 0 0 -2.12,-2.2 2.09,2.09 0 0 0 -2.1,2.18 v 0 a 2.13,2.13 0 0 0 2.12,2.2 2.09,2.09 0 0 0 2.1,-2.18 z"
       id="path12"
       style="fill:#570683;fill-opacity:1" />
    <path
       class="cls-1"
       d="m 194.11,10 v 0 a 3.72,3.72 0 0 1 7.44,0 v 0 a 3.72,3.72 0 0 1 -7.44,0 z m 5.83,0 v 0 a 2.13,2.13 0 0 0 -2.12,-2.2 2.09,2.09 0 0 0 -2.1,2.18 v 0 a 2.13,2.13 0 0 0 2.12,2.2 2.09,2.09 0 0 0 2.11,-2.18 z"
       id="path13"
       style="fill:#570683;fill-opacity:1" />
    <path
       class="cls-1"
       d="m 202.73,6.49 h 1.54 v 5.6 h 3.49 v 1.4 h -5 v -7 z"
       id="path14"
       style="fill:#570683;fill-opacity:1" />
    <path
       class="cls-1"
       d="m 104.41,20 v 0 a 3.72,3.72 0 0 1 7.44,0 v 0 a 3.72,3.72 0 0 1 -7.44,0 z m 5.83,0 v 0 A 2.13,2.13 0 0 0 108.12,17.8 2.09,2.09 0 0 0 106,20 v 0 a 2.13,2.13 0 0 0 2.12,2.2 2.09,2.09 0 0 0 2.12,-2.2 z"
       id="path15"
       style="fill:#570683;fill-opacity:1" />
    <path
       class="cls-1"
       d="m 113,16.49 h 5.33 v 1.4 h -3.79 v 1.49 h 3.34 v 1.4 h -3.34 v 2.71 H 113 Z"
       id="path16"
       style="fill:#570683;fill-opacity:1" />
    <path
       class="cls-1"
       d="M 124.58,16.44 H 126 l 3,7.05 h -1.61 l -0.64,-1.57 h -3 l -0.64,1.57 h -1.57 z m 1.62,4.12 -0.93,-2.27 -0.93,2.27 z"
       id="path17"
       style="fill:#570683;fill-opacity:1" />
    <path
       class="cls-1"
       d="m 129.88,16.49 h 3.2 a 2.79,2.79 0 0 1 2,0.71 2.2,2.2 0 0 1 0.6,1.6 v 0 a 2.18,2.18 0 0 1 -1.5,2.17 l 1.71,2.5 h -1.8 l -1.5,-2.24 h -1.21 v 2.24 h -1.54 v -7 z m 3.1,3.4 a 1,1 0 0 0 1.18,-1 v 0 a 1,1 0 0 0 -1.21,-1 h -1.53 v 2 H 133 Z"
       id="path18"
       style="fill:#570683;fill-opacity:1" />
    <path
       class="cls-1"
       d="m 138.54,17.91 h -2.13 v -1.42 h 5.8 v 1.42 h -2.13 v 5.58 h -1.54 z"
       id="path19"
       style="fill:#570683;fill-opacity:1" />
    <path
       class="cls-1"
       d="m 142.71,22.47 0.91,-1.09 a 3.21,3.21 0 0 0 2.09,0.85 c 0.63,0 1,-0.25 1,-0.66 v 0 c 0,-0.39 -0.24,-0.59 -1.41,-0.89 -1.41,-0.36 -2.32,-0.75 -2.32,-2.14 v 0 a 2.19,2.19 0 0 1 2.45,-2.11 4.05,4.05 0 0 1 2.6,0.89 l -0.8,1.16 a 3.29,3.29 0 0 0 -1.82,-0.69 0.74,0.74 0 0 0 -0.9,0.61 v 0 c 0,0.46 0.3,0.61 1.51,0.92 1.42,0.37 2.22,0.88 2.22,2.1 v 0 c 0,1.39 -1.06,2.17 -2.57,2.17 a 4.46,4.46 0 0 1 -2.96,-1.12 z"
       id="path20"
       style="fill:#570683;fill-opacity:1" />
    <path
       class="cls-1"
       d="m 156.09,22.81 a 3.15,3.15 0 0 1 -2.05,0.78 2.1,2.1 0 0 1 -2.35,-2 v 0 a 2,2 0 0 1 1.31,-1.96 2.35,2.35 0 0 1 -0.49,-1.4 v 0 a 1.92,1.92 0 0 1 2.12,-1.84 1.81,1.81 0 0 1 2,1.76 v 0 A 1.94,1.94 0 0 1 155.18,20 l 0.93,0.93 c 0.23,-0.36 0.46,-0.77 0.68,-1.2 l 1.13,0.62 A 12.53,12.53 0 0 1 157,21.83 l 1,1 -1.13,0.79 z m -0.86,-0.88 -1.34,-1.36 a 1,1 0 0 0 -0.65,0.92 v 0 a 0.87,0.87 0 0 0 1,0.82 1.66,1.66 0 0 0 0.99,-0.38 z m 0.08,-3.69 v 0 a 0.62,0.62 0 0 0 -0.66,-0.65 0.66,0.66 0 0 0 -0.68,0.71 v 0 a 1.25,1.25 0 0 0 0.41,0.87 1.08,1.08 0 0 0 0.93,-0.93 z"
       id="path21"
       style="fill:#570683;fill-opacity:1" />
    <path
       class="cls-1"
       d="m 161.27,22.47 0.91,-1.09 a 3.21,3.21 0 0 0 2.09,0.85 c 0.63,0 1,-0.25 1,-0.66 v 0 c 0,-0.39 -0.24,-0.59 -1.41,-0.89 -1.41,-0.36 -2.32,-0.75 -2.32,-2.14 v 0 a 2.19,2.19 0 0 1 2.46,-2.15 4.06,4.06 0 0 1 2.6,0.89 l -0.8,1.16 a 3.29,3.29 0 0 0 -1.82,-0.69 0.74,0.74 0 0 0 -0.9,0.61 v 0 c 0,0.46 0.3,0.61 1.51,0.92 1.42,0.37 2.22,0.88 2.22,2.1 v 0 c 0,1.39 -1.06,2.17 -2.57,2.17 a 4.46,4.46 0 0 1 -2.97,-1.08 z"
       id="path22"
       style="fill:#570683;fill-opacity:1" />
    <path
       class="cls-1"
       d="m 167.63,20 v 0 a 3.56,3.56 0 0 1 3.65,-3.62 3.61,3.61 0 0 1 2.72,1.07 l -1,1.13 a 2.59,2.59 0 0 0 -1.79,-0.79 2.07,2.07 0 0 0 -2,2.18 v 0 a 2.08,2.08 0 0 0 2,2.2 2.52,2.52 0 0 0 1.84,-0.82 l 1,1 a 3.58,3.58 0 0 1 -2.87,1.25 3.53,3.53 0 0 1 -3.55,-3.6 z"
       id="path23"
       style="fill:#570683;fill-opacity:1" />
    <path
       class="cls-1"
       d="m 175.2,16.49 h 1.54 v 7 h -1.54 z"
       id="path24"
       style="fill:#570683;fill-opacity:1" />
    <path
       class="cls-1"
       d="m 178.29,16.49 h 5.28 v 1.37 h -3.75 v 1.42 h 3.3 v 1.37 h -3.3 v 1.47 h 3.8 v 1.37 h -5.33 z"
       id="path25"
       style="fill:#570683;fill-opacity:1" />
    <path
       class="cls-1"
       d="m 184.79,16.49 h 1.42 l 3.28,4.31 V 16.49 H 191 v 7 h -1.3 L 186.3,19 v 4.45 h -1.52 v -7 z"
       id="path26"
       style="fill:#570683;fill-opacity:1" />
    <path
       class="cls-1"
       d="m 192.17,20 v 0 a 3.56,3.56 0 0 1 3.65,-3.62 3.61,3.61 0 0 1 2.76,1.08 l -1,1.13 a 2.59,2.59 0 0 0 -1.79,-0.79 2.07,2.07 0 0 0 -2,2.18 v 0 a 2.08,2.08 0 0 0 2,2.2 2.52,2.52 0 0 0 1.84,-0.82 l 1,1 a 3.58,3.58 0 0 1 -2.87,1.25 3.53,3.53 0 0 1 -3.59,-3.61 z"
       id="path27"
       style="fill:#570683;fill-opacity:1" />
    <path
       class="cls-1"
       d="m 199.67,16.49 h 5.28 v 1.37 h -3.75 v 1.42 h 3.3 v 1.37 h -3.3 v 1.47 h 3.8 v 1.37 h -5.33 z"
       id="path28"
       style="fill:#570683;fill-opacity:1" />
    <rect
       class="cls-1"
       x="95.980003"
       width="0.64999998"
       height="30"
       id="rect28"
       y="0"
       style="fill:#570683;fill-opacity:1" />
    <path
       class="cls-1"
       d="m 37.78,6.6 h 3.46 l 8,10.49 V 6.6 h 3.7 v 17 H 49.73 L 41.48,12.8 v 10.84 h -3.7 z"
       id="path29"
       style="fill:#570683;fill-opacity:1" />
    <path
       class="cls-1"
       d="M 61.34,16.92 54.79,6.6 h 4.38 l 4.07,6.84 4.14,-6.84 h 4.26 l -6.55,10.24 v 6.79 h -3.75 z"
       id="path30"
       style="fill:#570683;fill-opacity:1" />
    <path
       class="cls-1"
       d="M 73.24,16.33 V 6.6 H 77 v 9.64 c 0,2.77 1.39,4.21 3.68,4.21 2.29,0 3.68,-1.39 3.68,-4.09 V 6.6 h 3.75 v 9.62 c 0,5.16 -2.9,7.69 -7.47,7.69 -4.57,0 -7.4,-2.56 -7.4,-7.58 z"
       id="path31"
       style="fill:#570683;fill-opacity:1" />
    <path
       class="cls-1"
       d="M 30,30 H 0 V 0 H 30 Z M 14,26.49 a 0.32,0.32 0 0 0 0.59,0 l 1,-8.31 h -2.54 z m 2.53,-8.91 v -1.26 h -4.37 v 1.26 h 4.33 z m -1.25,-1.87 c 5.49,0.2 5.88,-4.8 5.9,-6.68 0,-0.11 -0.05,-0.12 -0.08,0 a 5.25,5.25 0 0 1 -2.86,2.63 5.16,5.16 0 0 0 -3,4 0.025,0 -90 0 0 0,0.05 z m -0.6,-0.36 c 0.87,-4.17 4.26,-4.27 4.56,-5.06 0.47,-1.23 -0.39,-3.42 -0.61,-3.68 a 0.03,0 0 0 0 -0.06,0 A 7.4,7.4 0 0 1 16.78,9 c -0.77,0.62 -3.71,2.8 -2.21,6.32 a 0.03807887,0 -156.80141 0 0 0.07,0.03 z m -0.6,0.17 c -1.84,-3.93 1.84,-6.46 2.44,-7 A 0.26,0.26 0 0 0 16.58,8.28 9.26,9.26 0 0 0 15.64,4.76 c 0,0 -0.06,0 -0.07,0 a 11.92,11.92 0 0 1 -2.32,3.43 c -2.84,3.37 -2.19,5.43 0.77,7.37 -0.02,0.02 0.04,0 -0.02,-0.05 z m -0.82,0.14 C 10.19,13.82 10.49,11.2 11.77,9.28 a 0.29,0.29 0 0 0 0,-0.19 A 7.34,7.34 0 0 0 11,7.15 c -0.06,-0.08 -0.1,-0.07 -0.1,0 A 10.53,10.53 0 0 1 9.37,10.5 c -1,1.61 -1,5.1 3.84,5.24 0.04,-0.02 0.05,-0.06 0.01,-0.09 z"
       id="path32"
       style="fill:#570683;fill-opacity:1" />
  </g>
  <metadata
     id="metadata1">
    <rdf:RDF>
      <cc:Work
         rdf:about="">
        <dc:title>gsas_large_full</dc:title>
      </cc:Work>
    </rdf:RDF>
  </metadata>
</svg>
